<?xml version="1.0" encoding="iso-8859-1"?>
<!-- Generator: Adobe Illustrator 24.3.0, SVG Export Plug-In . SVG Version: 6.00 Build 0)  -->
<svg version="1.1" id="&#xB808;&#xC774;&#xC5B4;_1" xmlns="http://www.w3.org/2000/svg" xmlns:xlink="http://www.w3.org/1999/xlink"
	 x="0px" y="0px" height="18" viewBox="0 0 30 25" style="enable-background:new 0 0 30 25;" xml:space="preserve">
<path style="fill:#EB7171;" d="M24.828,5.172c-0.177,0-0.345,0.035-0.517,0.052v-4.19C24.31,0.466,23.845,0,23.276,0l-9.31,4.655H3
	c-1.65,0-3,1.35-3,3v5.379c0,1.65,1.35,3,3,3h0.103v5.948c0,1.375,1.125,2.5,2.5,2.5h0.172c1.375,0,2.5-1.125,2.5-2.5v-5.948h5.69
	l9.31,4.655c0.569,0,1.034-0.466,1.034-1.034v-4.19c0.173,0.017,0.34,0.052,0.517,0.052c2.857,0,5.172-2.316,5.172-5.172
	C30,7.488,27.684,5.172,24.828,5.172z"/>
</svg>
