<?xml version="1.0" encoding="iso-8859-1"?>
<!-- Generator: Adobe Illustrator 25.2.3, SVG Export Plug-In . SVG Version: 6.00 Build 0)  -->
<svg version="1.1" id="&#xB808;&#xC774;&#xC5B4;_1" xmlns="http://www.w3.org/2000/svg" xmlns:xlink="http://www.w3.org/1999/xlink"
	 x="0px" y="0px" viewBox="0 0 182 113" style="enable-background:new 0 0 182 113;" xml:space="preserve">
<g>
	<g>
		<g>
			<path style="fill:#878787;" d="M9.975,110.612H9.97c-0.055-0.007-0.094,0-0.132,0.004c-0.017,0.005-0.028,0.006-0.053,0.006
				c-0.186,0-0.204-0.006-0.356-0.167l-2.615-3.091l2.206-2.389c0.331-0.362,0.738-0.858,0.925-1.452
				c0.042-0.144,0.004-0.244-0.038-0.296c-0.065-0.095-0.182-0.152-0.33-0.161l-1.055-0.062c-0.328-0.034-0.44,0.14-0.519,0.302
				l-0.03,0.068c-0.239,0.562-0.276,0.648-0.544,0.971l-2.408,2.922v-3.747c0-0.272-0.202-0.468-0.488-0.468H3.521
				c-0.29,0-0.492,0.196-0.492,0.468v8.122c0,0.272,0.202,0.464,0.492,0.464h1.011c0.287,0,0.488-0.192,0.488-0.464v-3.65
				l2.643,3.423c0.33,0.435,0.734,0.838,1.446,0.838c0.446,0,0.561-0.046,0.724-0.115l0.031-0.01
				c0.278-0.092,0.433-0.267,0.433-0.482l-0.036-0.735C10.248,110.726,10.133,110.612,9.975,110.612"/>
			<path style="fill:#878787;" d="M17.079,102.944c-2.685,0-4.225,1.712-4.225,4.7c0,2.981,1.539,4.693,4.225,4.693
				c2.734,0,4.236-1.668,4.236-4.693C21.315,104.656,19.772,102.944,17.079,102.944 M17.079,110.901c-1.8,0-2.112-1.05-2.112-3.257
				c0-2.493,0.494-3.249,2.112-3.249c1.628,0,2.126,0.756,2.126,3.249C19.205,109.852,18.888,110.901,17.079,110.901"/>
			<path style="fill:#878787;" d="M31.746,110.622c-0.049,0-0.088,0.009-0.132,0.019c-0.027,0.001-0.055,0.006-0.085,0.006
				c-0.184,0-0.203,0-0.324-0.176l-1.747-2.358c1.52-0.28,2.263-1.112,2.263-2.533c0-1.699-1.089-2.528-3.323-2.528h-2.665
				c-0.458,0-0.79,0.317-0.79,0.759v7.831c0,0.277,0.203,0.464,0.488,0.464h1.025c0.286,0,0.477-0.183,0.477-0.464v-7.211h1.137
				c1.178,0,1.537,0.336,1.537,1.436c0,1.1-0.41,1.489-1.56,1.489l-0.838-0.043v0.562l2.318,3.546
				c0.385,0.594,0.801,0.841,1.391,0.841c0.457,0,0.574-0.046,0.74-0.11l0.025-0.015c0.302-0.1,0.459-0.277,0.431-0.482
				l-0.072-0.734C32.028,110.753,31.923,110.644,31.746,110.622"/>
			<path style="fill:#878787;" d="M41.259,110.622h-3.645v-2.554h2.28c0.291,0,0.492-0.188,0.492-0.463v-0.554
				c0-0.278-0.197-0.469-0.492-0.469h-2.28v-2.034h3.513c0.293,0,0.488-0.183,0.488-0.464v-0.553c0-0.282-0.196-0.478-0.488-0.478
				h-4.702c-0.457,0-0.79,0.317-0.79,0.759v7.54c0,0.441,0.333,0.755,0.79,0.755h4.835c0.287,0,0.489-0.187,0.489-0.464v-0.554
				C41.748,110.801,41.561,110.622,41.259,110.622"/>
			<path style="fill:#878787;" d="M49.866,103.624c-0.161-0.382-0.415-0.572-0.772-0.572h-1.012c-0.357,0-0.629,0.199-0.783,0.572
				c-0.025,0.06-2.392,5.91-2.835,7.055c-0.159,0.399-0.281,0.928-0.293,1.024c-0.029,0.142,0.015,0.232,0.053,0.285
				c0.047,0.053,0.135,0.118,0.297,0.118l0,0l1.067,0.05c0.194,0,0.337-0.115,0.387-0.317c0.01-0.034,0.027-0.1,0.042-0.176
				c0.037-0.172,0.097-0.42,0.172-0.612l0.443-1.246h3.689l0.458,1.263c0.058,0.14,0.093,0.303,0.129,0.464
				c0.026,0.099,0.042,0.197,0.073,0.294c0.061,0.237,0.199,0.345,0.437,0.345h0.003l1.236-0.049c0.127,0,0.236-0.049,0.303-0.127
				c0.057-0.07,0.082-0.159,0.065-0.246c-0.048-0.331-0.167-0.775-0.295-1.07L49.866,103.624z M49.808,108.369h-2.649l1.149-2.941
				c0.092-0.218,0.135-0.503,0.164-0.707c0.022,0.204,0.068,0.489,0.152,0.701L49.808,108.369z"/>
			<path style="fill:#878787;" d="M63.399,103.066H62.57c-0.285,0-0.478,0.186-0.478,0.464l0.05,4.97
				c0.008,0.661,0.162,1.436,0.229,1.734h-0.017c-0.092-0.242-0.403-1.066-0.631-1.474l-2.894-5.195
				c-0.232-0.42-0.494-0.499-0.959-0.499h-1c-0.301,0-0.658,0.122-0.658,0.696v7.88c0,0.281,0.191,0.464,0.477,0.464h0.83
				c0.287,0,0.478-0.183,0.478-0.464l-0.049-4.967c-0.011-0.658-0.166-1.438-0.226-1.739h0.014c0.092,0.245,0.404,1.066,0.634,1.479
				l2.891,5.194c0.232,0.424,0.495,0.498,0.959,0.498h1c0.303,0,0.658-0.118,0.658-0.695v-7.881
				C63.877,103.252,63.687,103.066,63.399,103.066"/>
			<path style="fill:#878787;" d="M78.122,103.052h-4.701c-0.459,0-0.793,0.317-0.793,0.759v7.831c0,0.281,0.191,0.464,0.478,0.464
				h1.026c0.283,0,0.477-0.183,0.477-0.464v-3.319h2.281c0.288,0,0.491-0.194,0.491-0.464v-0.554c0-0.28-0.199-0.468-0.491-0.468
				h-2.281v-2.29h3.512c0.29,0,0.488-0.183,0.488-0.464v-0.553C78.61,103.248,78.411,103.052,78.122,103.052"/>
			<path style="fill:#878787;" d="M85.137,102.944c-2.687,0-4.225,1.712-4.225,4.7c0,2.981,1.539,4.693,4.225,4.693
				c2.732,0,4.237-1.668,4.237-4.693C89.374,104.656,87.829,102.944,85.137,102.944 M85.137,110.901
				c-1.798,0-2.118-1.05-2.118-3.257c0-2.493,0.498-3.249,2.118-3.249c1.628,0,2.124,0.756,2.124,3.249
				C87.261,109.852,86.943,110.901,85.137,110.901"/>
			<path style="fill:#878787;" d="M98.358,110.612h-3.368v-7.091c0-0.272-0.198-0.468-0.488-0.468h-1.015
				c-0.284,0-0.488,0.196-0.488,0.468v7.831c0,0.499,0.399,0.755,0.791,0.755h4.568c0.287,0,0.488-0.192,0.488-0.464v-0.554
				C98.846,110.803,98.651,110.612,98.358,110.612"/>
			<path style="fill:#878787;" d="M108.779,110.612L108.779,110.612c-0.058-0.007-0.096,0-0.135,0.004
				c-0.014,0.005-0.031,0.006-0.053,0.006c-0.186,0-0.209-0.01-0.354-0.167l-2.617-3.091l2.205-2.389
				c0.333-0.362,0.737-0.858,0.927-1.452c0.04-0.148,0-0.244-0.043-0.296c-0.062-0.095-0.179-0.152-0.329-0.161l-1.055-0.062
				c-0.322-0.034-0.436,0.14-0.517,0.302l-0.034,0.073c-0.229,0.543-0.275,0.643-0.539,0.966l-2.409,2.922v-3.747
				c0-0.272-0.203-0.468-0.49-0.468h-1.011c-0.289,0-0.493,0.196-0.493,0.468v8.122c0,0.272,0.204,0.464,0.493,0.464h1.011
				c0.287,0,0.49-0.192,0.49-0.464v-3.65l2.645,3.423c0.313,0.414,0.731,0.838,1.445,0.838c0.445,0,0.561-0.046,0.725-0.115
				l0.031-0.01c0.277-0.092,0.431-0.267,0.431-0.482l-0.038-0.735C109.051,110.726,108.937,110.612,108.779,110.612"/>
			<path style="fill:#878787;" d="M124.065,103.095l-1.012-0.065l-0.039-0.002c-0.292,0-0.372,0.191-0.415,0.395
				c-0.03,0.098-0.046,0.207-0.065,0.315c-0.023,0.144-0.045,0.296-0.095,0.438l-1.758,5.58c-0.065,0.212-0.103,0.478-0.125,0.68
				c-0.016-0.202-0.049-0.468-0.123-0.68l-1.761-5.598c-0.058-0.159-0.089-0.317-0.119-0.467c-0.018-0.099-0.035-0.183-0.058-0.272
				c-0.053-0.188-0.135-0.391-0.418-0.391l-1.245,0.068c-0.135,0.003-0.243,0.053-0.311,0.139c-0.04,0.053-0.089,0.156-0.059,0.301
				c0.028,0.162,0.127,0.704,0.244,1.041l2.483,6.941c0.13,0.366,0.441,0.589,0.809,0.589h0.959c0.381,0,0.707-0.231,0.835-0.589
				l2.398-6.941c0.132-0.372,0.202-0.789,0.242-1.006l0.008-0.035c0.025-0.137-0.018-0.228-0.059-0.283
				C124.32,103.165,124.21,103.106,124.065,103.095"/>
			<path style="fill:#878787;" d="M129.338,103.052h-0.998c-0.286,0-0.478,0.189-0.478,0.468v8.122c0,0.281,0.192,0.464,0.478,0.464
				h0.998c0.29,0,0.49-0.187,0.49-0.464v-8.122C129.828,103.248,129.627,103.052,129.338,103.052"/>
			<path style="fill:#878787;" d="M139.293,110.612h-3.368v-7.091c0-0.272-0.202-0.468-0.489-0.468h-1.012
				c-0.287,0-0.489,0.196-0.489,0.468v7.831c0,0.499,0.396,0.755,0.789,0.755h4.57c0.287,0,0.488-0.192,0.488-0.464v-0.554
				C139.781,110.809,139.58,110.612,139.293,110.612"/>
			<path style="fill:#878787;" d="M148.128,110.612h-3.367v-7.091c0-0.272-0.201-0.468-0.488-0.468h-1.012
				c-0.288,0-0.489,0.196-0.489,0.468v7.831c0,0.499,0.395,0.755,0.791,0.755h4.565c0.29,0,0.493-0.192,0.493-0.464v-0.554
				C148.621,110.803,148.42,110.612,148.128,110.612"/>
			<path style="fill:#878787;" d="M156.452,103.624c-0.153-0.382-0.407-0.572-0.767-0.572h-1.009c-0.36,0-0.631,0.199-0.784,0.572
				c-0.025,0.06-2.393,5.91-2.833,7.055c-0.158,0.401-0.284,0.928-0.295,1.024c-0.03,0.142,0.015,0.232,0.056,0.285
				c0.045,0.053,0.128,0.118,0.293,0.118l0,0l1.067,0.05c0.197,0,0.337-0.115,0.386-0.317c0.011-0.034,0.027-0.104,0.043-0.183
				c0.044-0.176,0.099-0.413,0.174-0.604l0.444-1.246h3.688l0.458,1.263c0.058,0.14,0.094,0.303,0.127,0.458
				c0.025,0.105,0.048,0.203,0.075,0.3c0.063,0.237,0.199,0.345,0.438,0.345l0,0l1.239-0.049c0.122,0,0.234-0.049,0.302-0.127
				c0.058-0.07,0.084-0.159,0.068-0.246c-0.05-0.331-0.169-0.775-0.298-1.07L156.452,103.624z M156.4,108.369h-2.65l1.152-2.941
				c0.089-0.218,0.137-0.499,0.159-0.706c0.025,0.207,0.07,0.488,0.154,0.7L156.4,108.369z"/>
			<path style="fill:#878787;" d="M169.466,107.176c-0.018,0-0.038,0-0.056,0l-1.263,0.086c-0.128,0.015-0.223,0.067-0.275,0.164
				c-0.044,0.078-0.058,0.178-0.04,0.317c0.016,0.115,0.036,0.217,0.053,0.312c0.049,0.272,0.089,0.483,0.089,0.877v1.961
				c-0.181,0.034-0.618,0.115-0.981,0.115c-2.202-0.01-2.62-1.17-2.62-3.309c0-2.196,0.414-3.25,2.775-3.25
				c0.68,0,1.494,0.193,2.028,0.36c0.082,0.03,0.157,0.045,0.227,0.045c0.113,0,0.308-0.045,0.365-0.341l0.113-0.591
				c0.043-0.257,0.055-0.479-0.301-0.613c-0.614-0.203-1.52-0.342-2.251-0.342c-3.259,0-5.056,1.655-5.056,4.652
				c0,3.021,1.672,4.681,4.705,4.681c0.652,0,1.364-0.098,1.861-0.26c0.833-0.237,1.125-0.494,1.125-1.435v-1.724
				c0-0.492-0.023-0.754-0.073-1.199C169.862,107.484,169.821,107.176,169.466,107.176"/>
			<path style="fill:#878787;" d="M179.516,110.622h-3.644v-2.554h2.282c0.286,0,0.488-0.188,0.488-0.463v-0.554
				c0-0.278-0.192-0.469-0.488-0.469h-2.282v-2.034h3.51c0.293,0,0.492-0.183,0.492-0.464v-0.553c0-0.282-0.198-0.478-0.492-0.478
				h-4.699c-0.458,0-0.791,0.317-0.791,0.759v7.54c0,0.441,0.334,0.755,0.791,0.755h4.833c0.29,0,0.49-0.187,0.49-0.464v-0.554
				C180.006,110.801,179.818,110.622,179.516,110.622"/>
		</g>
		<path style="fill:#878787;" d="M33.743,74.924c-0.217,1.142-0.723,1.48-1.599,1.53c-0.892,0.071-1.827-0.05-2.708-0.337
			c-0.893-0.276-1.331,0.112-1.282,0.728c0.071,0.63,0.099,0.855-0.171,1.417c-0.278,0.564,0.122,1.527-0.095,2.09
			c-0.233,0.558-0.11,0.902-0.183,1.697c-0.05,0.8,0,1.078-0.15,1.697c-0.176,0.621,0,1.411-0.774,1.476
			c-0.784,0.051-1.611,0.167-2.106,0.28c-0.501,0.109-0.948-0.579-1.043-1.079c-0.121-0.505,0.321-1.757,0.321-2.087
			c0-0.347,0.337-1.639,0.451-2.201c0.098-0.573,0.597-2.046,0.379-2.503c-0.211-0.456-0.281-2.089-0.549-2.597
			c-0.281-0.515,0.268-1.31,0.382-1.647c0.114-0.341,0-1.131,0.166-1.633c0.164-0.522,0-1.086-0.211-1.304
			c-0.233-0.227-0.619-1.412-0.51-1.995c0.114-0.553-0.429-1.351-0.281-2.024c0.172-0.69,0.071-1.478,0.281-1.93
			c0,0,0.51-0.623,0.997-0.838c0.498-0.241,1.156-0.346,1.724,0.609c0.545,0.968,0.715,1.988,0.875,2.727
			c0.171,0.725,0.123,1.978,0.05,3.002c-0.05,1.014,0.231,2.153,1.216,2.153c0.997,0,2.879-0.286,3.601,0.451
			C33.249,73.344,33.969,73.787,33.743,74.924 M27.497,89.998c-0.447-0.223-0.393,0.12-1.162-0.11
			c-0.779-0.227-2.662,0.053-3.259,0.053c-0.623,0-1.276,0-1.61-0.109c-0.322-0.117-5.965-0.117-7.135,0
			c-1.157,0.109-4.029,0.287-5.083,0.167c-1.054-0.11-1.549,1.076-1.881-0.912c-0.332-1.979-0.615-2.828-0.833-3.385
			c-0.224-0.574-1.313-0.803-2.309-0.574c-1.003,0.224-1.453,1.013-1.453,1.013c-0.272,1.302-0.826,1.589-0.058,2.669
			c0.778,1.079,0.176,1.309-0.098,1.866c-0.273,0.562-1.054,1.878-1.161,2.263c-0.109,0.404-0.109,2.04,0.647,2.607
			C2.89,96.12,4.54,95.769,5.045,95.27c0.493-0.519,1.49-0.803,2.432-0.922c0.938-0.109,0.996,0.064,2.158-0.162
			c1.156-0.229,1.603,0.281,2.757-0.065c1.173-0.341,1.279,0.346,2.764,0c1.505-0.341,1.554,0.227,2.667-0.054
			c1.099-0.287,2.099,0.222,2.764,0.172c0.657-0.053,1.154,0.345,2.21,0.458c1.056,0.099,2.862,0.439,3.586,0.222
			c0.722-0.222,0.998-0.222,1.939-0.451c0.941-0.228,1.156-0.727,1.212-1.529c0.069-0.791-0.097-1.865-0.326-2.322
			C28.983,90.159,27.937,90.219,27.497,89.998 M68.952,73.221c-0.487-0.063-1.811-0.398-2.038-0.577
			c-0.217-0.161-0.44-0.62,0.438-0.958c0.893-0.339,1.709-1.52,1.438-2.425c-0.276-0.91-0.821-4.072-3.319-4.986
			c-2.482-0.894-2.817-0.455-3.752-0.214c-0.94,0.214-4.479-0.395-5.694,0c-1.215,0.38-2.047-0.564-3.64-0.453
			c-1.611,0.098-2.548-0.112-3.329,0.163c-0.779,0.29-2.154,0.334-3.257,0.29c-1.119-0.06-2.048,0-3.27,0.33
			c-1.215,0.335-2.76,0.173-3.266,0.564c0,0-1.703,1.413-0.989,2.543c0.725,1.139,1.608,0.569,2.543,0.451
			c0.942-0.105,1.934,0.292,2.825,0.351c0.882,0.05,1.766-0.283,2.431-0.233c0.662,0.06,1.331,0,1.495-0.163
			c0.153-0.177,1.877,0.163,2.319,0.163c0.439,0,0.765-0.163,1.769,0.06c0.999,0.223,1.488-0.223,1.938-0.11
			c0.446,0.11,1.656,0.11,2.545,0.11c0.88,0,1.315,0.509,1.984,0.223c0.658-0.283,1.489-0.283,2.213-0.158
			c0.719,0.108,1.985,0.158,2.261,0.787c0.288,0.617,0.444,1.58,1,1.58c0.546,0,0.166,1.016,0.166,1.244
			c0,0.221,0,0.913-1.004,0.913c-0.99,0-1.763,0.162-2.205,0.107c-0.439-0.06-1.936-0.455-2.378-0.107
			c-0.441,0.331-0.265-0.349-2.384-0.233c-2.088,0.125-2.976-0.171-3.408-0.344c-0.45-0.162-2.168-0.336-3.929,0.068
			c-1.779,0.401-1.889-0.119-2.433-0.119c-0.557,0-2.381,0.335-3.316,0.395c-0.948,0.048-2.5,0.34-3.444,0.395
			c-0.932,0.059-1.984,0.739-2.045,1.137c-0.043,0.384-0.649,2.544,1.056,2.824c1.716,0.275,2.543-0.218,3.198-0.218
			c0.684,0,1.331,0.163,2.223,0.045c0.892-0.107,1.884,0.283,2.544-0.107c0.664-0.395,1.931-0.171,2.481,0.061
			c0.561,0.218,1.933-0.061,2.331,0.843c0.385,0.908,0.885,2.546,0.826,2.943c-0.054,0.389,0.609,1.749,1.66,1.428
			c1.053-0.355,1.441-0.582,1.879-0.749c0.446-0.177,0.938-1.585,0.831-2.088c-0.107-0.515,0.605-1.935,0.88-2.097
			c0.275-0.173,0.786-0.063,1.554-0.063c0.77,0,2.15-0.173,2.931,0.063c0.766,0.212,1.878-0.118,2.37-0.236
			c0.496-0.107,0.557,0.347,1.49,0.236c0.944-0.118,1.554-0.118,2.055-0.118c0.488,0,1.601,0.624,1.715-1.016
			c0.106-1.643,0.279-0.793,0.556-1.136C70.065,74.299,69.462,73.272,68.952,73.221 M67.908,87.746c0-0.454-0.556-0.903-0.663-1.466
			c-0.105-0.566-1.102-1.371-1.553-1.532c-0.434-0.161-1.435-0.848-2.161-0.67c-0.717,0.168-0.935-0.742-2.426-0.291
			c-1.494,0.459-2.258-0.226-3.256,0.056c-0.999,0.287-2.536,0.12-2.873-0.282c-0.335-0.398-0.88-0.117-1.335-0.287
			c-0.443-0.167-1.319-0.744-2.433-0.559c-1.093,0.166-2.427,0.337-3.357,0.337c-0.949,0-1.057,0.177-1.828,0.177
			c-0.782,0-4.044,0.157-4.881,0.614c0,0-2.868,0.904-3.314,0.795c-0.436-0.114-1.768,1.748-1.258,2.317
			c0.482,0.564,1.322,1.305,4.131,0.851c2.826-0.449,4.158-0.627,5.373-0.627c1.213,0,2.205-0.272,2.983-0.164
			c0.781,0.11,2.379-0.282,2.766-0.06c0.379,0.224,1.714,0.336,2.656,0.171c0.936-0.171,1.484,0.166,2.255,0.232
			c0.781,0.045,2.048,0,2.446-0.291c0.381-0.27,1.376,0.403,2.085,0.513c0.727,0.12,1.389,0.398,1.495,0.905
			c0.126,0.498,0.229,2.322,0,2.704c-0.215,0.403-0.265,1.028,0,1.816c0.281,0.789-0.048,1.529,0.445,2.026
			c0.504,0.522,0.327,0.744,1.113,0.803c0.783,0.057,1.985-0.967,2.707-0.903c0.715,0.048,1.221-1.536,1.161-2.325
			c-0.053-0.788,0.06-1.417-0.277-2.311C67.578,89.381,67.908,88.2,67.908,87.746 M106.044,77.582
			c0.229-2.039-0.263-2.949-0.04-4.704c0.227-1.749-0.497-2.374-0.661-3.059c-0.168-0.678-0.327-1.618-0.117-2.305
			c0.222-0.677-0.211-1.012-0.341-1.47c-0.1-0.459,0-2.715-2.484-2.486c0,0-0.875,0.675-1.042,2.538
			c-0.177,1.881-0.446,1.881-0.341,2.611c0.118,0.741,0.388,2.015,0.508,2.465c0.094,0.462,0.263,1.826,0.326,2.322
			c0.05,0.519-0.716,1.023-0.547,1.703c0.166,0.686,0,1.815,0.315,2.433c0.342,0.63-0.094,1.59,0,2.601
			c0.125,1.021-1.327,2.666,0.781,2.949c2.1,0.278,3.323,0.45,3.938-1.476C106.938,79.789,105.84,79.612,106.044,77.582
			 M103.545,91.025c-0.401-0.398-1.243-1.052-1.678-0.813c-0.439,0.222-1.446,0.182-3.218,0.006
			c-1.778-0.181-0.962,0.302-2.094,0.049c-1.392-0.307-1.832-0.055-2.491-0.168c-0.675-0.102-1.727-0.462-1.933-0.184
			c-0.224,0.297-1.067-0.201-2.879,0.133c-1.823,0.33-2.388-0.287-5.409,0.29c-3.031,0.579-2.568-0.441-2.854-1.002
			c-0.292-0.562,0.172-3.353-0.919-4.788c-1.087-1.466-2.44-0.113-2.44-0.113c-0.219-0.059-1.037,0.47-1.179,1.267
			c-0.162,0.796,0.434,2.982,0.41,4.008c-0.043,1.019-1.352,1.969-1.352,1.969c-1.047,2.227-0.092,2.424,0.125,2.921
			c0.231,0.505,1.63,0.987,2.356,1.03c0.711,0.039,1.275,0.377,1.55,0.134c0.272-0.241,2.205-0.436,2.205-0.436
			c1.09-0.207,2.304-0.408,3.624-0.607c1.322-0.196,1.445,0.08,2.442,0.112c0.993,0.036,1.042-0.134,1.655-0.211
			c0.606-0.065,1.009,0.268,2.332,0.006c1.314-0.252,0.939,0.441,2.158,0.352c1.204-0.09,1.992,0.405,2.985,0.144
			c0.988-0.239,1.557,0.247,2.108,0.072c0.547-0.181,1.712-0.312,2.428-0.057c0.734,0.277,0.829,0.277,1.877,0.072
			c1.048-0.191,1.263-0.714,1.25-1.104c-0.01-0.399,0.475-1.146,0.458-1.984C105.042,91.27,103.942,91.396,103.545,91.025
			 M114.657,75.4c0.337-0.064,0.498,0.115,0.672,0.344c0.166,0.217,0.711,0.512,0.933,0.727c0.207,0.224,0.943,0.389,1.058,0
			c0.099-0.405,0.647-1.135,1.152-1.246c0.503-0.12,0.785-0.739,1.223-1.183c0.433-0.463,0.388-1.082,1.267-1.253
			c0.875-0.167,0.76-0.44,0.992-0.736c0.227-0.285,0.885-0.907,1.107-1.24c0.224-0.346,0.603-0.958,0.715-1.183
			c0.115-0.239,0-0.518,0.73-1.087c0.711-0.562,1.934-0.451,2.371-0.228c0.435,0.228,2.326,1.595,2.591,1.763
			c0.271,0.168,1.486,0.281,1.894,0.621c0.381,0.332,1.158,0.391,1.539,0.448c0.398,0.063,0.947,0.282,1.396,0.737
			c0.439,0.465,0.931,0.11,1.314,0.623c0.397,0.505,1.392,0.335,1.996,0.796c0.604,0.454,1.772,1.588,2.933,1.532
			c1.146-0.064,2.035-1.994,1.986-2.888c-0.056-0.917-1.109-1.249-1.436-1.589c-0.342-0.345-1.219-0.281-1.83-0.795
			c-0.605-0.513-1.487-0.903-1.717-1.183c-0.207-0.29-1.379-0.794-1.71-0.568c-0.327,0.228-0.993-0.283-1.322-0.51
			c-0.335-0.224-1.44-0.342-2.269-0.805c-0.838-0.434-1.055-0.385-2.775-0.325c-1.697,0.055-1.81-0.971-2.363-1.304
			c-0.563-0.339,0.266-0.564-1.11-1.524c-1.39-0.975-3.051-0.112-3.051,0.615c0,0.736-1.152,2.436-1.152,2.436
			c-0.226,0.346-1.935,1.295-2.097,1.585c-0.174,0.28-0.897,1.021-1.168,1.244c-0.273,0.223-0.945,1.299-1.208,1.532
			c-0.28,0.226-0.887,0.332-1.181,0.74c-0.263,0.386-1.254,1.462-1.641,1.864c-0.385,0.396-0.609,0.785-0.562,1.181
			C114,74.944,114.335,75.452,114.657,75.4 M141.631,77.868c-0.383-0.118-0.764,0.053-1.599,0.053c-0.815,0-2.373-0.283-3.372,0.059
			c-0.987,0.34-3.1,0.34-4.142,0.062c-1.056-0.291-1.931-0.404-2.101-0.79c-0.168-0.399-0.503-1.364-0.614-1.766
			c-0.108-0.404,0.34-0.855-0.722-1.584c-1.048-0.729-0.092-1.418-1.151-1.418c-1.052,0-0.782-0.844-1.717-0.164
			c-0.942,0.671-1.279,1.244-1.376,1.583c0,0-0.78,0.513,0.324,1.636c1.109,1.139-0.488,1.596-0.558,1.931
			c-0.046,0.333-2.482,0.168-3.243,0.451c-0.78,0.286-2.221,0-3.224,0.173c-0.991,0.174-2.597,0.054-3.803,0.331
			c-1.214,0.291-2.61,0.517-2.934,1.257c-0.327,0.735-1.05,1.58,0.117,1.748c1.152,0.176,1.816,0.391,2.038,0.286
			c0.227-0.11,1.709-0.169,2.159-0.053c0.428,0.113,1.609,0.509,2.931,0.113c1.323-0.405,2.203-0.346,2.878-0.293
			c0.661,0.064,1.707-0.288,2.144,0.233c0.301,0.351,2.161-0.11,2.548-0.233c0.38-0.112,1.058-0.384,2.042-0.288
			c0.997,0.128,1.995,0.469,3.107,0.288c1.093-0.161,2.814,0.123,3.479,0c0.666-0.112,1.21,0.518,1.546,0.391
			c0.342-0.098,1.11,0.181,1.328,0.063c0.219-0.115,1.328-0.39,1.709-0.331c0.391,0.058,1.72-0.123,2.384-0.123
			c0.662,0,1.991,0.338,1.861-0.795c-0.1-1.125-0.1-1.851-0.701-2.368C142.356,77.803,142.026,77.98,141.631,77.868 M142.526,90.987
			c0.105-0.627-0.171-2.057-0.439-2.616c-0.275-0.55,0.055-2.258-0.275-2.656c-0.334-0.401-1.065-1.141-1.176-1.361
			c-0.097-0.219-1.102-1.01-1.655-0.952c-0.539,0.05-0.833-0.286-1.822-0.171c-0.994,0.113-5.034,0.221-6.022,0
			c-0.994-0.231-1.555,0.046-2.113-0.231c-0.544-0.286-2.264,0-3.416-0.053c-1.157-0.06-3.15,0.168-4.154,0.168
			c-0.993,0-3.268-0.327-4.417-0.115c-1.185,0.231-4.42,0.624-4.864,1.179c0,0-1.707,1.258-1.055,2.448
			c0.668,1.193,1.499,0.844,2.272,0.724c0.777-0.099,2.378,0.342,2.928-0.099c0.544-0.459,0.722-0.459,1.555-0.403
			c0.81,0.058,2.71-0.113,3.257-0.056c0.547,0.056,2.27-0.455,2.878-0.286c0.598,0.167,1.263,0.4,2.534,0.167
			c1.273-0.224,1.828,0.233,2.709,0.401c0.892,0.177,2.874,0.06,3.204-0.06c0.332-0.108,1.007,0.289,2.153,0.396
			c1.173,0.118,2.329,0.342,2.511,0.722c0.164,0.419,0.762,0.64,0.93,1.999c0.162,1.359-0.226,1.124,0.099,1.808
			c0.34,0.678-0.214,0.905-0.05,1.636c0.173,0.741-0.667,2.262,0.558,2.262c1.215,0,2.491,0.176,2.873-0.609
			c0.394-0.788,1.493-0.747,1.102-1.583C142.24,92.801,142.422,91.599,142.526,90.987 M150.197,69.82
			c1.887-0.223,2.158-0.509,2.391-0.395c0.212,0.12,1.253-0.744,1.877-0.566c0.601,0.181,1.653-0.287,2.09-0.06
			c0.435,0.241,1.119,0.403,1.322,0.241c0.237-0.181,2.054,0.331,0.895,1.185c-1.163,0.846-2.548,2.143-3.159,2.878
			c-0.602,0.735-1.313,1.297-1.658,1.761c-0.325,0.459-1.601,0.68-1.655,1.302c-0.051,0.62-0.267,0.949,1.114,1.344
			c1.388,0.406,1.264,0.689,1.712,0.915c0.44,0.226,0.714,0.059,0.992-0.68c0.273-0.731,0.611-0.681,1.154-0.843
			c0.556-0.173,1.22-1.359,1.561-1.642c0.322-0.285,1.032-0.519,1.263-0.685c0.224-0.177,0.897-1.08,1.396-1.129
			c1.044-0.117,0.564-0.29,0.987-0.964c0.266-0.459,1.609-1.016,1.935-1.136c0.324-0.113,0.775,0.677,1.043,0.91
			c0.282,0.226,1.485,0.68,1.886,0.9c0.384,0.231,2.271,1.241,2.808,1.475c0.572,0.231,1.173,0.567,1.496,0.91
			c0.332,0.342,0.892,0.467,1.441,0.903c0.553,0.456,0.994,0.73,1.268,1.018c0.291,0.281,1.007,0.734,1.112,0.562
			c0.108-0.161,1.114,0.504,1.114,0.346c0-0.174,1.43-1.422,1.43-1.983c0-0.574,0.283-1.19-0.987-1.87
			c-1.284-0.682-1.334-1.072-2.008-1.803c-0.661-0.739-1.327-1.031-1.422-1.314c-0.122-0.273-0.734,0.117-1.056-0.168
			c-0.33-0.278-1.056-1.068-1.436-1.12c-0.38-0.061-1.608-0.744-0.45-0.854c1.159-0.119,1.717,0.11,1.717,0.11
			s0.769-0.276,1.058-0.11c0.262,0.164,1.269,0.11,1.544-0.119c0.283-0.222,1.163-0.46,1.882-0.46c0.721,0,1.763-0.045,2.212-0.045
			c0.44,0,1.551-0.064,1.43-0.793c-0.095-0.737-0.384-1.521-0.82-2.21c-0.454-0.68-0.667-0.68-1.993-0.445
			c-1.329,0.217-1.942-0.065-3.208,0.109c-1.264,0.163-2.105,0.226-2.87,0.163c-0.78-0.055-4.093,0.458-4.704-0.337
			c-0.617-0.794-1.006-1.194-1.494-1.353c-0.489-0.163-0.779-0.39-1.115-0.677c-0.326-0.292-1.756-0.232-2.089,0
			c-0.341,0.226-1.552,0.514-0.997,1.575c0,0,1.273,0.915-0.327,1.32c-1.604,0.379-1.053,0.036-1.384-0.07
			c-0.339-0.112-4.654,0-5.757,0.172c-1.11,0.172-4.251,0.912-4.655,2.037C148.702,69.26,148.317,70.053,150.197,69.82
			 M180.435,80.816c-0.707-0.504-4.144-0.337-4.695-0.174c-0.549,0.174-1.658,0.517-2.809,0.174c-1.174-0.337-1.728,0-2.78-0.055
			c-1.045-0.046-2.475-0.282-3.089-0.619c-0.598-0.342-0.389-1.638-0.389-1.638s-0.227-2.401-0.879-2.608
			c-2.88-0.899-3.712,0.29-3.712,0.29c-0.591,1.066-0.221,1.349-0.221,1.748c0,0.399-0.169,0.11,0.119,1.522
			c0.278,1.422-0.94,1.023-1.436,1.023c-0.508,0-1.665,0.399-2.383,0.337c-0.712-0.055-2.044-0.337-3.096-0.055
			c-1.047,0.285-1.924,0.628-2.931,0.573c-1.003-0.064-2.097,0-3.648,1.066c-1.545,1.079-0.766,2.437-0.441,2.322
			c0.327-0.108,2.553,0.114,3.324,0.062c0.765-0.062,1.539-0.062,3.025-0.286c1.499-0.226,7.199,0.164,8.141-0.11
			c0.935-0.283,5.457,0.275,6.626,0.227c1.169-0.061,4.765-0.172,6.028-0.117c1.28,0.055,0.226-0.157,2.765,0.286
			c2.539,0.453,2.991-0.169,3.436-0.626c0.436-0.445,0.608-2.147,0.608-2.373C182,81.565,181.155,81.334,180.435,80.816
			 M180.167,92.515c0.064-0.725-0.603-1.013-1.49-1.131c-0.882-0.114-1.437-0.068-2.386-0.285c-0.928-0.224-1.761,0.171-2.322,0.058
			c-0.54-0.112-0.655,0.287-1.482,0.287c-0.839,0-1.554,0.234-2.932-0.06c-1.378-0.285-4.709-0.068-5.638-0.227
			c-0.944-0.167-2.601,0.069-3.371-0.058c-0.774-0.109-2.105,0.616-2.603,0.453c-0.492-0.168-0.381-0.562-2.048-0.326
			c-1.66,0.218-1.215-1.772-1.215-1.772c0-0.332,0.194-2.172-0.66-2.815c-2.162-1.654-3.822-0.178-3.822-0.178
			c-0.934,1.185-1.045,2.608-0.828,3.115c0.231,0.51,0.934,0.735,0.44,1.415c-0.484,0.688-1.322,0.618-0.929,2.946
			c0.382,2.312,3.589,1.857,4.311,1.808c0.716-0.051,2.981-0.568,4.081-0.392c1.12,0.171,1.782-0.347,2.322-0.294
			c0.564,0.06,0.502-0.054,1.171,0.06c0.657,0.112,2.818,0.404,3.598,0.112c0.766-0.286,1.093-0.054,1.656,0.172
			c0.554,0.227,0.88-0.172,1.437-0.05c0.537,0.105,1.225,0.224,1.822,0.05c0.603-0.172,1.156-0.05,2.106,0.12
			c0.937,0.171,1.826,0.222,2.21,0.107c0.374-0.107,2.095-0.053,2.492,0.064c0.385,0.1,1.651,0,3.245-0.064
			c1.615-0.053,1.727-1.412,1.505-1.594C180.617,93.877,180.111,93.255,180.167,92.515 M74.758,69.371
			c-0.877-0.914-0.433-1.179,0.169-2.314c0.843-1.574,2.605-1.032,2.605-1.032c0.492,0,1.102,0.176,1.818-0.163
			c0.721-0.339,1.658-0.564,2.717-0.339c1.052,0.219,0.654,0.395,1.653-0.118c0.997-0.502,0.937,0.118,1.879,0
			c0.937-0.108,2.277-0.056,2.763-0.163c0.5-0.119,1.336-0.119,1.724,0.5c0.384,0.625,1.268,2.274,1.268,3.237
			c0,0.956,0.442,1.916,0.274,2.706c-0.164,0.798-0.446,1.618-0.053,2.89c0.56,1.813-0.329,1.082-1.104,1.748
			c-0.772,0.69-0.164,1.764-0.336,2.553c-0.166,0.794-1.772,0.624-2.715,0.509c-0.927-0.114-2.326,0.623-2.597,0.623h-1.605
			c-0.496,0-1.536-0.06-2.267-0.06c-0.708,0-1.314,0.112-1.877,0.347c-0.549,0.212-1.208-0.064-2.648-0.287
			c-1.43-0.221-1.173-2.144-1.097-2.896c0.048-0.725,0.653-1.408,0.424-1.633c-0.218-0.221-0.545-1.418-0.5-2.034
			c0.076-0.624,0.401-1.644,0.457-2.492C75.751,70.114,74.758,69.371,74.758,69.371 M79.96,72.878
			c0.17,0.453,0.392,0.739,0.55,1.641c0.171,0.908,1.216,0.962,1.769,1.023c0.559,0.05,0.062,0.467,2.158,0.394
			c2.099-0.051,1.715-0.231,2.154-0.614c0.443-0.404,0.443-1.307,0.443-1.705c0-0.396,0.048-1.008,0.668-1.359
			c0.608-0.345,0.826-0.502,0.66-0.855c-0.161-0.331-0.827-0.679-0.827-0.679c-0.216-0.726-1.16-0.952-1.493-0.789
			c-0.322,0.179-1.046-0.51-1.82-0.45c-0.786,0.06-2.207-0.344-3.214-0.283c-0.979,0.059-1.156,0.45-1.209,1.023
			C79.746,70.785,79.799,72.423,79.96,72.878 M3.828,68.412c-0.823,0.065-1.899,0.167-2.659,0.167c-0.717,0-1.6,0.177-0.932-1.25
			c0.661-1.408,1.219-0.774,2.38-1.067c0,0,2.428-0.06,3.252-0.449c0.835-0.406,0.726-0.406,0.626-1.477
			c0,0,0.925-1.978,2.911-1.234c2.004,0.73,0.675,2.197,2.941,2.305c2.261,0.113,3.097,0.745,4.139,0.287
			c1.066-0.45,2.613-0.504,3.21,0.335c0.604,0.863,0.55,2.329-0.823,2.27c-1.387-0.046-2.327,0.059-2.931,0.219
			c-0.606,0.179-1.28,0.061-1.778,0.355c-0.493,0.268-1.604,0.219-1.927,0.156c-0.335-0.045-1.5,0.584,0.048,1.139
			c1.556,0.572,2.551,0.788,3.158,1.418c0.603,0.623,0.99,0.219,1.327,1.008c0.326,0.801,1.49,1.812,1.598,4.709
			c0.104,2.879-0.109,3.281-1.332,4.356c-1.208,1.068-2.375,2.717-4.918,2.778c-2.544,0.053-1.994-0.174-3.647-0.406
			c-1.658-0.213-2.483-0.796-3.25-1.067c-0.79-0.292-3.321-2.26-3.166-5.273c0.164-2.996,1.268-4.019,1.947-4.641
			c0.661-0.619,1.761-2.31,2.7-2.592c0.941-0.29,1.825-0.969,0.221-1.09C5.316,69.245,4.665,68.356,3.828,68.412 M5.99,77.803
			c0.825,2.942,2.269,2.272,3.752,2.719c1.496,0.454,3.823-0.341,4.817-1.863c0.999-1.529,0.549-3.113-0.994-4.072
			c-1.556-0.969-2.488-0.4-3.106-0.523c-0.603-0.105-0.937-0.446-1.273-0.276c-0.33,0.171-0.606,0.053-0.772,0.223
			C8.415,74.011,5.153,74.863,5.99,77.803"/>
	</g>
	<g>
		<path style="fill:#878787;" d="M63.237,33.944c1.746-0.174,2.954-1.107,3.178-2.465c0.514-3.166-1.586-6.711-4.168-9.356
			c-4.58-0.768-9.803-0.855-15.586,0.294v5.133c5.05,3.969,10.711,5.57,12.886,6.074C61.515,34.072,62.566,34.014,63.237,33.944z
			 M61.925,28.527c1.146,0,2.077,0.929,2.077,2.08c0,1.147-0.931,2.075-2.077,2.075c-1.147,0-2.075-0.928-2.075-2.075
			C59.85,29.455,60.778,28.527,61.925,28.527z"/>
		<path style="fill:#878787;" d="M67.11,23.239c1.353,2.266,2.395,4.846,2.065,8.036c-0.217,2.107-1.533,4.497-6.705,4.956
			c-3.322,0.301-8.446-0.721-15.808-3.707v12.17c-3.605,0.798-9.26,3.447-12.956,5.638l0,0c-0.106,0.075-0.177,0.202-0.177,0.337
			c0,0.234,0.184,0.414,0.411,0.414c0.029,0,0.057-0.006,0.087-0.01l0,0c4.946-1.057,10.79-2.037,16.668-2.85
			c2.113-3.239,6.441-9.152,10.541-10.321c4.188-1.196,8.858,1.76,6.471,8.441c1.973-0.149,3.822-0.269,5.492-0.337V25.568
			C71.386,24.707,69.345,23.898,67.11,23.239z"/>
		<path style="fill:#878787;" d="M63.789,40.707c-1.531-0.476-3.541,0.325-5.091,1.833c-1.392,1.357-3.201,3.571-4.237,5.18
			c3.469-0.44,6.881-0.812,10.063-1.104C65.462,44.034,65.751,41.321,63.789,40.707z"/>
		<g>
			<path style="fill:#878787;" d="M92.193,25.94c0,2.353-0.004,5.158,0,7.351l4.412,1.513l-4.412,1.512v9.142
				c4.145,0.036,8.508,0.125,12.878,0.346v-25.03C99.555,21.39,95.546,23.395,92.193,25.94z M76.929,20.774v25.03
				c4.376-0.22,8.738-0.309,12.884-0.346v-9.142l-4.417-1.512l4.417-1.513c0.003-2.193,0-4.998,0-7.351
				C86.463,23.395,82.451,21.39,76.929,20.774z"/>
			<path style="fill:#878787;" d="M157.374,18.398c0-0.369-0.267-0.675-0.617-0.742C147.95,15.747,137.56,10.009,130.948,0
				C115.874,3.617,101.288,4.62,91,4.519C80.719,4.62,66.128,3.617,51.057,0c-6.613,10.009-17.002,15.747-25.812,17.662h0.002
				c-0.351,0.065-0.614,0.367-0.614,0.74c0,0.254,0.13,0.484,0.327,0.616c3.012,2.234,4.802,4.333,7.235,6.285
				c4.328,3.474,9.268,1.929,11.336-0.298c-6.187,0.249-10.159-2.712-11.726-4.876c6.327-2.336,16.453-8.478,21.197-16.233
				C63.958,6.621,81.178,7.658,91,7.591c9.825,0.066,27.046-0.97,38.007-3.696c4.74,7.755,14.868,13.896,21.189,16.233
				c-1.563,2.164-5.537,5.125-11.719,4.876c2.063,2.227,7.004,3.772,11.331,0.298c2.435-1.96,4.231-4.052,7.247-6.29
				c0.009-0.012,0.019-0.014,0.029-0.025l0,0l0.001-0.002C157.261,18.85,157.374,18.637,157.374,18.398z"/>
		</g>
		<path style="fill:#878787;" d="M148.337,50.354L148.337,50.354c-3.696-2.194-9.372-4.862-12.993-5.661v-6.178
			c-4.196,0.582-8.789,4.842-14.709,4.511c-3.269-0.177-7.729-1.706-7.999-7.925c-0.152-4.709,2.942-7.922,7.771-8.144
			c2.055-0.098,4.6,0.932,5.439,2.473c1.471,2.705,0.281,4.764-0.084,4.991c3.14-1.944,6.606-1.845,8.219-1.357
			c-3.359,0.914-6.508,2.558-7.853,3.246c-1.717,0.87-4.517,2.077-6.399,1.014c-1.571-0.892-2.072-3.026-1.364-4.202
			c0.73-1.219,2.697-1.154,2.869,0.157c0.137,1.015-0.248,1.564,0.169,2.033c0.455,0.51,2.513-0.164,2.855-2.097
			c0.342-1.932-1.101-3.849-3.953-3.746c-4.447,0.172-5.383,4.295-4.458,7.022c1.038,3.062,3.591,3.934,6.081,3.959
			c3.582,0.036,9.611-4.23,13.417-4.659V22.417c-11.119-2.206-20.171,0.13-26.536,3.151v20.437
			c10.301,0.439,27.355,2.536,39.218,5.081l0,0c0.03,0.008,0.06,0.009,0.09,0.009c0.224,0,0.406-0.18,0.406-0.402
			C148.523,50.55,148.447,50.424,148.337,50.354z"/>
	</g>
</g>
</svg>
