<?xml version="1.0" encoding="utf-8"?>
<!-- Generator: Adobe Illustrator 25.4.1, SVG Export Plug-In . SVG Version: 6.00 Build 0)  -->
<svg version="1.1" id="레이어_1" xmlns="http://www.w3.org/2000/svg" xmlns:xlink="http://www.w3.org/1999/xlink" x="0px"
	 y="0px" viewBox="0 0 90 90" style="enable-background:new 0 0 90 90;" xml:space="preserve">
<style type="text/css">
	.st0{fill:#999999;}
	.st1{fill:#FF6600;}
</style>
<g>
	<g>
		<path class="st0" d="M45,0C20.2,0,0,20.2,0,45s20.2,45,45,45s45-20.2,45-45S69.8,0,45,0z M47.5,84.9v-3.3c0-1.4-1.1-2.5-2.5-2.5
			s-2.5,1.1-2.5,2.5v3.3C22.4,83.7,6.3,67.6,5.1,47.5h3.3c1.4,0,2.5-1.1,2.5-2.5s-1.1-2.5-2.5-2.5H5.1C6.3,22.4,22.4,6.3,42.5,5.1
			v3.3c0,1.4,1.1,2.5,2.5,2.5s2.5-1.1,2.5-2.5V5.1c20.1,1.2,36.2,17.3,37.4,37.4h-3.3c-1.4,0-2.5,1.1-2.5,2.5s1.1,2.5,2.5,2.5h3.3
			C83.7,67.6,67.6,83.7,47.5,84.9z"/>
	</g>
	<g>
		<path class="st1" d="M45,49.4c-0.4,0-0.9-0.1-1.3-0.4l-17-10.3c-1.2-0.7-1.6-2.3-0.8-3.4s2.3-1.6,3.4-0.8l15.4,9.3l16.7-16.3
			c1-1,2.6-0.9,3.5,0c1,1,0.9,2.6,0,3.5L46.8,48.6C46.3,49.1,45.7,49.4,45,49.4z"/>
	</g>
</g>
</svg>
